<svg width="120" height="121" viewBox="0 0 120 121" fill="none" xmlns="http://www.w3.org/2000/svg">
<rect width="120" height="121" rx="17" fill="white"/>
<path fill-rule="evenodd" clip-rule="evenodd" d="M60.5 12C33.1512 12 11 34.1512 11 61.5C11 83.4037 25.1694 101.904 44.8456 108.463C47.3206 108.896 48.2487 107.411 48.2487 106.112C48.2487 104.936 48.1869 101.038 48.1869 96.8925C35.75 99.1819 32.5325 93.8606 31.5425 91.0762C30.9856 89.6531 28.5725 85.26 26.4688 84.0844C24.7362 83.1562 22.2612 80.8669 26.4069 80.805C30.305 80.7431 33.0894 84.3938 34.0175 85.8787C38.4725 93.3656 45.5881 91.2619 48.4344 89.9625C48.8675 86.745 50.1669 84.5794 51.59 83.3419C40.5763 82.1044 29.0675 77.835 29.0675 58.9012C29.0675 53.5181 30.9856 49.0631 34.1413 45.5981C33.6462 44.3606 31.9137 39.2869 34.6362 32.4806C34.6362 32.4806 38.7819 31.1813 48.2487 37.5544C52.2087 36.4406 56.4162 35.8837 60.6237 35.8837C64.8312 35.8837 69.0387 36.4406 72.9987 37.5544C82.4656 31.1194 86.6113 32.4806 86.6113 32.4806C89.3337 39.2869 87.6012 44.3606 87.1063 45.5981C90.2619 49.0631 92.18 53.4562 92.18 58.9012C92.18 77.8969 80.6094 82.1044 69.5956 83.3419C71.39 84.8887 72.9369 87.8587 72.9369 92.4994C72.9369 99.12 72.875 104.441 72.875 106.112C72.875 107.411 73.8031 108.958 76.2781 108.463C86.1046 105.145 94.6434 98.8299 100.693 90.4054C106.742 81.9808 109.997 71.8714 110 61.5C110 34.1512 87.8487 12 60.5 12Z" fill="black"/>
</svg>
