<svg width="120" height="121" viewBox="0 0 120 121" fill="none" xmlns="http://www.w3.org/2000/svg">
<rect width="120" height="121" rx="17" fill="white"/>
<path d="M70.6311 73.0956C71.7307 75.3409 73.4369 77.2281 75.5536 78.5404C77.6704 79.8528 80.1118 80.537 82.5972 80.5144C87.6233 80.5144 90.8346 77.9832 90.8346 74.488C90.8346 70.3002 87.5347 68.815 82.0053 66.3766L78.9712 65.0663C70.2199 61.3105 64.4034 56.605 64.4034 46.6586C64.4034 37.4939 71.3364 30.5214 82.1683 30.5214C85.6839 30.2645 89.1967 31.0571 92.2675 32.8001C95.3383 34.5432 97.8309 37.1593 99.4335 40.3215L89.9875 46.4301C89.369 44.8631 88.2917 43.5228 86.8989 42.5873C85.506 41.6518 83.8635 41.1654 82.1896 41.1926C81.46 41.1187 80.7231 41.1987 80.0259 41.4276C79.3287 41.6564 78.6864 42.0292 78.1402 42.5219C77.5939 43.0147 77.1556 43.6167 76.8532 44.2896C76.5508 44.9625 76.3909 45.6915 76.3838 46.4301C76.3838 50.0966 78.638 51.5782 83.8272 53.8489L86.8612 55.1555C97.1686 59.6075 102.985 64.1452 102.985 74.3487C102.985 85.3484 94.4074 91.3749 82.8843 91.3749C78.3959 91.6624 73.9207 90.6357 69.9986 88.4184C66.0766 86.2012 62.8753 82.8883 60.781 78.8793L70.6311 73.0956ZM27.7854 74.1667C29.6923 77.5726 31.4256 80.4502 35.5832 80.4502C39.5672 80.4502 42.0838 78.8793 42.0838 72.7743V31.2355H54.213V72.9457C54.213 85.5948 46.8476 91.3534 36.1007 91.3534C32.3046 91.5604 28.5351 90.6051 25.2883 88.613C22.0415 86.621 19.4694 83.6856 17.9105 80.1931L27.7854 74.1667Z" fill="black"/>
</svg>
