<svg width="120" height="121" viewBox="0 0 120 121" fill="none" xmlns="http://www.w3.org/2000/svg">
<rect width="120" height="121" rx="17" fill="white"/>
<path d="M90.0391 30.9974C93.0554 31.6998 95.7964 33.2806 97.916 35.5404C99.0836 36.7634 100.097 38.1247 100.935 39.594C100.974 39.7536 95.4994 43.4348 92.1793 45.4881C92.0588 45.5697 91.5805 45.0484 91.0383 44.2469C90.4318 43.2034 89.5709 42.3308 88.5361 41.7107C87.5013 41.0905 86.3263 40.7429 85.1209 40.7005C81.3047 40.438 78.8456 42.4382 78.8633 45.7825C78.8303 46.6041 79.0175 47.4196 79.4054 48.1444C80.2452 49.8822 81.8043 50.9248 86.7012 53.0491C95.7156 56.9325 99.5849 59.493 101.973 63.1316C103.323 65.4306 104.155 67.9973 104.409 70.6517C104.664 73.3061 104.335 75.9842 103.447 78.4983C102.226 81.2554 100.291 83.6352 97.8406 85.3907C95.3906 87.1462 92.5159 88.2134 89.5147 88.4815C86.3245 88.8477 83.1012 88.8144 79.9192 88.3822C75.0453 87.5806 70.5555 85.2393 67.1064 81.7007C65.8032 80.232 64.6999 78.5971 63.8253 76.8386C64.193 76.5648 64.5803 76.3182 64.9839 76.1009C65.5438 75.7817 67.6627 74.5618 69.6612 73.4021L73.2896 71.2742L74.0479 72.3807C75.325 74.2087 76.9507 75.7659 78.8314 76.9627C80.7308 78.0054 82.8822 78.4995 85.0458 78.3899C87.2093 78.2803 89.2999 77.5714 91.0844 76.3421C92.0049 75.4441 92.5803 74.2506 92.7099 72.9706C92.8394 71.6907 92.5149 70.4059 91.7931 69.3414C90.8151 67.9406 88.8166 66.7632 83.1366 64.2984C78.6828 62.7953 74.6261 60.3039 71.2699 57.0105C69.6715 55.1875 68.4912 53.0365 67.8116 50.7085C67.309 48.0564 67.2348 45.3408 67.5919 42.6652C68.2587 39.5863 69.855 36.787 72.1647 34.6467C74.4743 32.5063 77.3855 31.1284 80.5039 30.6995C83.6792 30.3198 86.8936 30.4202 90.0391 30.9974ZM60.4768 36.2568L60.5158 41.4133H44.11V88.0417H32.5409V41.4239H16.1351V36.3596C16.0915 34.6253 16.1388 32.8899 16.2768 31.1606C16.3371 31.079 26.3116 31.04 38.4051 31.0613L60.413 31.1216L60.4768 36.2568Z" fill="black"/>
</svg>
