<svg width="120" height="121" viewBox="0 0 120 121" fill="none" xmlns="http://www.w3.org/2000/svg">
<rect width="120" height="121" rx="17" fill="#0D1117"/>
<path d="M100.048 42.7648L99.6743 41.9206L99.0445 42.6053C97.5526 44.3106 95.6582 45.6161 93.5335 46.4031L92.9423 46.6313L93.187 47.2033C95.0096 51.5686 95.9444 56.2531 95.937 60.9836C95.937 80.8056 79.822 96.9343 59.9862 96.9343C40.1505 96.9343 24.0493 80.8193 24.0493 60.9973C24.0493 41.1753 40.1945 25.0466 60 25.0466C65.3872 25.0466 70.571 26.2098 75.3973 28.5143L75.9692 28.7866L76.214 28.2256C77.1012 26.1413 78.4933 24.3107 80.2647 22.8988L80.9825 22.3131L80.1658 21.8841C73.9334 18.6607 67.0165 16.9855 60 17.0001C35.7368 17.0001 16 36.7368 16 61.0001C16 85.2771 35.7368 105 60 105C84.277 105 104 85.2771 104 61.0001C104 54.6558 102.683 48.5261 100.048 42.7648ZM60 40.9471C54.6832 40.9522 49.5856 43.0666 45.826 46.8261C42.0665 50.5857 39.9521 55.6833 39.947 61.0001C39.9521 66.3169 42.0665 71.4145 45.826 75.1741C49.5856 78.9336 54.6832 81.048 60 81.0531C65.3168 81.048 70.4144 78.9336 74.174 75.1741C77.9335 71.4145 80.0479 66.3169 80.053 61.0001C80.0479 55.6833 77.9335 50.5857 74.174 46.8261C70.4144 43.0666 65.3168 40.9522 60 40.9471ZM97.928 33.5853C97.9287 34.7857 97.6929 35.9745 97.2339 37.0837C96.775 38.1929 96.1019 39.2007 95.2532 40.0496C94.4046 40.8986 93.3969 41.5719 92.2879 42.0312C91.1788 42.4905 89.9901 42.7267 88.7897 42.7263C87.5882 42.7282 86.398 42.493 85.2874 42.0345C84.1768 41.5759 83.1675 40.9029 82.3172 40.0539C81.4669 39.2049 80.7924 38.1966 80.3321 37.0866C79.8719 35.9767 79.635 34.7869 79.635 33.5853C79.635 21.3973 97.928 21.3973 97.928 33.5853Z" fill="white"/>
</svg>
