<svg width="120" height="121" viewBox="0 0 120 121" fill="none" xmlns="http://www.w3.org/2000/svg">
<rect width="120" height="121" rx="17" fill="#0D1117"/>
<path d="M78.5069 71.4838C80.5579 70.0816 83.4041 68.8678 83.4041 68.8678C83.4041 68.8678 75.3049 70.3327 67.2477 71.0024C57.3906 71.8186 46.801 71.986 41.4853 71.2745C28.9075 69.6002 48.3915 64.9752 48.3915 64.9752C48.3915 64.9752 40.8365 64.4729 31.5235 68.9515C20.5363 74.2672 58.7299 76.6948 78.5069 71.4838ZM60.6344 64.7659C56.6581 55.8296 43.2432 47.9816 60.6344 34.2528C82.3284 17.1337 71.203 6 71.203 6C75.7026 23.6842 55.3815 29.0417 48.0357 40.029C43.0339 47.5421 50.4843 55.5994 60.6344 64.7659ZM84.6179 27.8907C84.6388 27.8907 47.952 37.0572 65.4688 57.2318C70.638 63.1753 64.1084 68.5329 64.1084 68.5329C64.1084 68.5329 77.2303 61.7522 71.203 53.2764C65.5734 45.3656 61.2622 41.4311 84.6179 27.8907ZM83.3413 84.501C83.2269 84.7004 83.0861 84.8834 82.9227 85.0451C109.773 77.9924 99.8954 60.1617 87.0665 64.6822C86.3736 64.9368 85.7749 65.3967 85.3504 66.0006C86.0995 65.7295 86.8694 65.5195 87.6525 65.3728C94.1402 64.0125 103.453 74.0579 83.3413 84.501ZM93.2109 97.5392C93.2109 97.5392 96.2455 100.03 89.8834 101.976C77.7661 105.638 39.4887 106.747 28.8573 102.122C25.0275 100.469 32.2058 98.1461 34.466 97.6647C36.8099 97.1625 38.1703 97.2462 38.1703 97.2462C33.9219 94.2535 10.6918 103.127 26.3669 105.659C69.1102 112.607 104.303 102.541 93.2109 97.5392ZM46.4243 88.875C29.9539 93.4791 56.4488 102.98 77.4187 94.0023C75.3735 93.2078 73.3992 92.2417 71.517 91.1143C62.1621 92.8931 57.83 93.0187 49.3333 92.056C42.3224 91.2608 46.4243 88.875 46.4243 88.875ZM84.0528 109.217C67.5825 112.314 47.2614 111.959 35.2278 109.97C35.2278 109.949 37.6973 112 50.3797 112.817C69.6753 114.051 99.3094 112.126 100 103.001C100 103.001 98.6606 106.454 84.0528 109.217ZM74.9282 79.8759C62.5388 82.2617 55.3605 82.1989 46.2987 81.2572C39.2878 80.5247 43.871 77.1343 43.871 77.1343C25.7055 83.1616 53.9584 89.9841 79.344 82.5547C77.7033 81.9754 76.2 81.0634 74.9282 79.8759Z" fill="white"/>
</svg>
