<svg width="120" height="121" viewBox="0 0 120 121" fill="none" xmlns="http://www.w3.org/2000/svg">
<rect width="120" height="121" rx="17" fill="white"/>
<path d="M30.7143 34.5927C36.3018 34.5927 40.8315 30.0591 40.8315 24.4667C40.8315 18.8743 36.3018 14.3407 30.7143 14.3407C25.1267 14.3407 20.597 18.8743 20.597 24.4667C20.597 30.0591 25.1267 34.5927 30.7143 34.5927Z" fill="black"/>
<path d="M50.3845 42.2658V98.4445H67.8122V70.6629C67.8122 63.3322 69.1901 56.233 78.2716 56.233C87.2282 56.233 87.3392 64.6142 87.3392 71.1257V98.4491H104.776V67.6409C104.776 52.5075 101.521 40.8774 83.8481 40.8774C75.3631 40.8774 69.6757 45.5378 67.3498 49.9482H67.114V42.2658H50.3845ZM21.9842 42.2658H39.4396V98.4445H21.9842V42.2658Z" fill="black"/>
</svg>
