<svg width="120" height="121" viewBox="0 0 120 121" fill="none" xmlns="http://www.w3.org/2000/svg">
<rect width="120" height="121" rx="17" fill="#0D1117"/>
<path d="M110.805 60.9997C110.805 80.3294 88.2393 96 60.402 96C32.5661 96 10 80.3294 10 60.9997C10 41.6706 32.5661 26 60.402 26C88.2393 26 110.805 41.6706 110.805 60.9997Z" fill="#0D1117"/>
<path d="M108.424 58.5153C108.424 75.7411 86.8712 89.7067 60.2847 89.7067C33.6988 89.7067 12.1461 75.7411 12.1461 58.5153C12.1461 41.2902 33.6988 27.3254 60.2847 27.3254C86.8712 27.3254 108.424 41.2902 108.424 58.5153Z" fill="#0D1117"/>
<path d="M109.025 56.702L108.939 55.9863C108.175 49.5595 104.518 43.5083 98.366 38.4896L97.9261 38.1303L97.4293 38.4047C88.8835 43.1183 79.6678 43.3194 70.0416 39.0048C56.9211 33.1233 50.4176 39.9312 50.1631 40.2083L48.6469 41.7601C45.9743 41.4645 38.8879 42.3561 37.6987 42.51C33.7898 42.2322 28.9791 40.679 23.3986 37.8922L22.9245 37.6548L22.5057 37.9825C15.7799 43.2483 11.8874 49.6642 11.249 56.5371L12.0851 56.6151L11.964 57.4457C16.7686 58.1436 24.139 59.9178 31.9712 64.4056L32.134 64.4979C31.9575 65.0043 31.8418 65.5386 31.8418 66.1045C31.8418 68.8222 34.0519 71.0322 36.7689 71.0322C36.9372 71.0322 37.1069 71.0219 37.2814 71C37.7042 72.6442 38.7415 73.9196 40.1667 74.4991C41.2635 74.9445 42.5135 74.9302 43.7075 74.4676C44.2378 76.0119 45.2778 77.1771 46.6585 77.7375C47.8285 78.213 49.1634 78.211 50.4374 77.7382C51.1538 79.9626 53.2222 81.5294 55.6361 81.5294C57.1174 81.5294 58.4592 80.9335 59.4479 79.9763C59.9638 80.2451 62.0712 81.2708 64.2866 81.2708C65.6263 81.2708 66.9989 80.8931 68.0704 79.7402C70.3228 79.7977 74.047 79.0457 74.957 75.9168C77.2279 75.7971 80.6996 74.6284 81.6253 70.7818C82.7817 70.7058 85.0533 70.3794 86.3628 69.0083C87.9427 67.3518 87.968 65.2718 87.1819 63.7562C88.5605 62.9981 93.1427 61.122 108.331 56.8949L109.025 56.702Z" fill="#0D1117"/>
<path d="M51.8711 76.4387L51.7336 75.1421L50.6101 75.803C49.5058 76.4517 48.3009 76.5926 47.291 76.1821C46.1545 75.7196 45.3513 74.6009 45.0878 73.1106L44.8723 71.8934L43.82 72.5421C42.8094 73.1647 41.7147 73.3145 40.7992 72.943C39.7003 72.4962 38.947 71.3611 38.7855 69.9051L38.6733 68.9013L37.7065 69.1949C37.3514 69.3023 37.0538 69.3529 36.7691 69.3529C34.9786 69.3529 33.5212 67.8962 33.5212 66.1043C33.5212 65.6589 33.6122 65.2333 33.7757 64.8467L33.9392 64.5491C34.2232 64.0338 34.6337 63.6178 35.114 63.3257C35.1325 63.314 35.1523 63.3052 35.1715 63.2942C35.3768 63.1752 35.5964 63.0848 35.8236 63.0137C35.8749 62.9979 35.9248 62.9795 35.9775 62.9658C36.2341 62.8994 36.4989 62.8563 36.7691 62.8563C37.9221 62.8563 38.9997 63.4913 39.5799 64.5121L40.0794 65.3913L40.8519 64.7386C41.9774 63.7889 43.3513 63.47 44.4631 63.9209C45.3773 64.2932 46.0451 65.1334 46.3434 66.2863L46.6513 67.4761L47.6482 66.757C48.8551 65.8846 50.2372 65.6376 51.3833 66.1043C53.1376 66.8172 54.0319 69.0047 53.5591 71.4227L53.2971 72.761L54.6101 72.3922C55.0021 72.2827 55.3278 72.2314 55.6364 72.2314C57.7362 72.2314 59.4454 73.9399 59.4454 76.0404C59.4454 76.2758 59.4167 76.5043 59.3763 76.7274C59.3537 76.8465 59.3181 76.9621 59.2832 77.0784C59.2586 77.166 59.2333 77.2542 59.2018 77.3405C59.1409 77.5026 59.0705 77.6607 58.9863 77.8153C58.9754 77.8365 58.9637 77.8577 58.9521 77.8783C58.8515 78.0555 58.7372 78.2279 58.6066 78.3928L58.5464 78.4694C57.8471 79.3062 56.8091 79.8502 55.6364 79.8502C53.6953 79.8502 52.0764 78.3839 51.8711 76.4387Z" fill="white"/>
<path d="M85.148 67.8478C84.2955 68.7414 82.5959 69.0308 81.5477 69.102L73.218 61.4723C72.8828 61.1521 72.4716 60.9174 72.1493 61.252C71.8284 61.5872 72.1732 62.1435 72.5071 62.4651L80.0629 70.0044C79.4033 73.7416 75.8776 74.1939 74.7014 74.2384L69.4856 68.8187C69.1757 68.4732 68.7282 68.1358 68.3834 68.4472C68.0385 68.7564 68.4066 69.2429 68.7159 69.5884L73.3734 75.2722C72.802 77.6471 69.7935 78.0111 68.4306 78.0494L63.3845 72.8172C63.0746 72.4724 62.6579 72.1693 62.3123 72.4806C61.9675 72.7906 62.2747 73.301 62.5847 73.6465L66.7433 78.683C64.8952 80.4736 61.5351 79.1113 60.4711 78.6078C60.5012 78.5523 60.5224 78.4935 60.5505 78.4374C60.6141 78.3067 60.6798 78.1801 60.7332 78.044C60.8385 77.784 60.9193 77.5178 60.9815 77.2455C61 77.1661 61.013 77.0868 61.0274 77.0067C61.0855 76.6892 61.1245 76.3676 61.1245 76.0406C61.1245 72.9199 58.4835 70.3616 55.3539 70.56C55.4921 67.8218 54.2126 65.4414 52.0163 64.5485C50.6177 63.982 49.0529 64.0894 47.5969 64.8256C47.4772 64.569 47.3342 64.3316 47.1823 64.1045C47.1638 64.0778 47.1515 64.0463 47.133 64.0196C47.0831 63.9485 47.0201 63.891 46.9674 63.8232C46.4632 63.176 45.8344 62.6655 45.0954 62.3652C43.6387 61.774 41.9727 61.9861 40.503 62.9153C40.2861 62.6608 40.0411 62.4357 39.7811 62.2318C39.7633 62.2174 39.7497 62.1982 39.7319 62.1852C39.5937 62.0799 39.437 62.0066 39.2899 61.917C38.5359 61.4572 37.6751 61.1774 36.7692 61.1774C36.4675 61.1774 36.1712 61.213 35.8797 61.267C35.8277 61.2766 35.7744 61.2834 35.7231 61.2944C35.4726 61.3505 35.2291 61.4285 34.9916 61.5222C34.9041 61.5564 34.8178 61.5913 34.733 61.6303C34.5277 61.7254 34.3286 61.8315 34.1391 61.9533C34.033 62.0203 33.9345 62.0956 33.8339 62.1702C33.732 62.2475 33.6335 62.331 33.5363 62.4158C33.3605 62.5698 33.199 62.7353 33.0471 62.9132C33.0136 62.9522 32.9766 62.9871 32.9445 63.0268L32.8062 62.9474C25.6583 58.8524 18.8838 56.9537 13.9896 56.0738C13.6564 56.0143 12.6274 55.9609 12.312 55.9103C13.105 49.9419 16.5219 44.0015 22.3665 39.2982C22.6025 39.4139 23.5995 39.862 23.8321 39.9736C29.1546 42.5161 33.8045 43.9331 37.669 44.1911L37.7518 44.1972L37.8339 44.1856C40.6508 43.8182 44.8628 43.3864 47.2541 43.3768L40.6952 50.0993L41.0244 50.6528C42.1485 52.5515 43.9856 53.1125 45.7653 53.1125C48.2558 53.1125 50.6355 52.0137 50.8032 51.9343L50.9236 51.8659C50.9236 51.8659 53.4942 50.0842 56.9905 47.7066L57.9648 47.0429C61.297 44.7569 63.7122 46.7534 63.8429 46.865C63.9866 46.9779 78.2901 58.2188 83.4799 62.5533L85.434 64.1154C86.1545 65.0329 86.368 66.5697 85.148 67.8478Z" fill="white"/>
<path d="M86.0594 62.4649L84.5432 61.2532C79.3466 56.9139 65.0239 45.6579 64.9151 45.573C63.7335 44.5385 60.5635 43.2269 57.0152 45.6579L56.047 46.3168L56.5191 47.0119L56.0463 46.3175C52.8606 48.4844 50.4419 50.1566 50.0293 50.4419C49.4635 50.6944 44.9059 52.6143 42.8403 50.3064L49.6407 43.1454L51.3806 41.3644C51.4388 41.3008 57.3231 35.1435 69.355 40.5372C78.429 44.6042 87.499 44.7889 95.7568 41.1119C96.4218 40.815 98.0106 40.0316 98.664 39.6854C103.986 44.1608 107.286 49.627 108.155 55.2027C92.6073 59.5481 87.3888 61.6473 86.0594 62.4649Z" fill="white"/>
</svg>
