<svg width="120" height="121" viewBox="0 0 120 121" fill="none" xmlns="http://www.w3.org/2000/svg">
<rect width="120" height="121" rx="17" fill="white"/>
<path d="M59.9808 110.244C58.6916 110.244 57.3832 109.895 56.248 109.236L44.3761 102.16C42.6059 101.152 43.4717 100.803 44.049 100.61C46.4157 99.776 46.8967 99.6015 49.4173 98.1475C49.6867 97.9924 50.033 98.0506 50.3024 98.2251L59.4228 103.673C59.7499 103.866 60.2117 103.866 60.5195 103.673L96.0582 83.007C96.3853 82.8131 96.597 82.4254 96.597 82.0377V40.7065C96.597 40.2994 96.3853 39.931 96.039 39.7178L60.5195 19.0716C60.1924 18.8777 59.7499 18.8777 59.4228 19.0716L23.9226 39.7372C23.5762 39.931 23.3646 40.3188 23.3646 40.7259V82.0377C23.3646 82.4254 23.5762 82.8131 23.9226 82.9876L33.6587 88.6483C38.95 91.3042 42.1826 88.1831 42.1826 85.0231V44.2348C42.1826 43.6532 42.6444 43.2073 43.2216 43.2073H47.7241C48.2821 43.2073 48.7631 43.6532 48.7631 44.2348V85.0425C48.7631 92.1378 44.9148 96.2089 38.2381 96.2089C36.1793 96.2089 34.563 96.2089 30.0606 93.9601L20.7478 88.5514C18.4388 87.2138 17.015 84.7129 17.015 82.0183V40.7065C17.015 38.0312 18.4388 35.511 20.7478 34.1734L56.248 13.5078C58.4992 12.2283 61.4816 12.2283 63.7136 13.5078L99.2523 34.1927C101.561 35.5304 102.985 38.0312 102.985 40.7259V82.0377C102.985 84.7129 101.561 87.2138 99.2523 88.5708L63.7136 109.236C62.5784 109.895 61.2892 110.244 59.9808 110.244ZM88.6696 69.5142C88.6696 61.7792 83.4744 59.7242 72.5646 58.2703C61.5201 56.7969 60.4041 56.0409 60.4041 53.4432C60.4041 51.2913 61.3469 48.4222 69.5245 48.4222C76.8169 48.4222 79.5107 50.0118 80.6267 54.9747C80.7229 55.4399 81.1462 55.7889 81.6273 55.7889H86.2452C86.5338 55.7889 86.8032 55.6726 86.9956 55.4593C87.188 55.2461 87.2842 54.9553 87.265 54.6645C86.553 46.1152 80.9153 42.141 69.5245 42.141C59.3843 42.141 53.3425 46.4448 53.3425 53.6758C53.3425 61.5078 59.3651 63.679 69.0819 64.6483C80.7229 65.7921 81.6273 67.5175 81.6273 69.8244C81.6273 73.818 78.4332 75.5239 70.9483 75.5239C61.5393 75.5239 59.4805 73.1394 58.7878 68.4286C58.7109 67.9246 58.2876 67.5562 57.768 67.5562H53.1694C52.5921 67.5562 52.1496 68.0215 52.1496 68.5837C52.1496 74.6128 55.4014 81.805 70.9676 81.805C82.2045 81.7856 88.6696 77.3075 88.6696 69.5142V69.5142Z" fill="black"/>
</svg>
