<svg width="120" height="121" viewBox="0 0 120 121" fill="none" xmlns="http://www.w3.org/2000/svg">
<rect width="120" height="121" rx="17" fill="#0D1117"/>
<path d="M70.5246 35.7465H99.0492C99.5738 35.7465 100.197 36.0751 100.918 36.7324C101.639 37.3897 102 38.1784 102 39.0986L77.0164 55.8592H76.2295L70.5246 52.3099V35.7465ZM70.5246 58.4225L75.8361 61.9718C76.0984 62.1033 76.3606 62.169 76.6229 62.169H77.2131L77.4098 61.9718C77.1475 62.1033 79.0492 60.8216 83.1147 58.1268C87.1803 55.4319 91.377 52.7042 95.7049 49.9437L102 45.8028V75.9718C102 77.5493 101.574 78.7324 100.721 79.5211C99.8688 80.3099 98.7869 80.7042 97.4754 80.7042H70.5246V58.4225ZM43.1803 50.7324C44.8852 50.7324 46.2295 51.554 47.2131 53.1972C48.1967 54.8404 48.6885 57.108 48.6885 60C48.6885 62.892 48.1967 65.1268 47.2131 66.7042C46.2295 68.2817 44.8197 69.0704 42.9836 69.0704C41.2787 69.0704 39.9016 68.2488 38.8525 66.6056C37.8033 64.9624 37.2787 62.7606 37.2787 60C37.2787 57.2394 37.8033 55.0047 38.8525 53.2958C39.9016 51.5869 41.3443 50.7324 43.1803 50.7324ZM18 27.4648L67.377 18V102L18 91.7465V27.4648ZM51.0492 70.4507C53.1475 67.6901 54.1967 64.1408 54.1967 59.8028C54.1967 55.4648 53.1803 51.9484 51.1475 49.2535C49.1148 46.5587 46.459 45.2113 43.1803 45.2113C39.7705 45.2113 37.0164 46.5915 34.918 49.3521C32.8197 52.1127 31.7705 55.7934 31.7705 60.3944C31.7705 64.6009 32.8197 68.0188 34.918 70.6479C37.0164 73.277 39.7049 74.5915 42.9836 74.5915C46.2623 74.5915 48.9508 73.2113 51.0492 70.4507Z" fill="white"/>
</svg>
