<svg width="120" height="121" viewBox="0 0 120 121" fill="none" xmlns="http://www.w3.org/2000/svg">
<rect width="120" height="121" rx="17" fill="white"/>
<path d="M38.2984 52.3486H34.099L31.8112 64.1178H35.541C38.0021 64.1178 39.8403 63.6512 41.0559 62.7146C42.2514 61.7946 43.0673 60.2314 43.4836 58.0615C43.8966 55.9784 43.7067 54.5018 42.9474 53.6352C42.1648 52.7852 40.6196 52.3519 38.2984 52.3519V52.3486ZM60.4478 32.2667C31.0119 32.2667 7.16418 44.8358 7.16418 60.3181C7.16418 75.8003 31.0119 88.3694 60.4478 88.3694C89.8836 88.3694 113.731 75.8003 113.731 60.3181C113.731 44.8358 89.8836 32.2667 60.4478 32.2667ZM45.9646 65.3877C44.8118 66.4967 43.4243 67.3317 41.9051 67.8309C40.4131 68.3008 38.5083 68.5608 36.2004 68.5608H30.942L29.5033 76.027H23.379L28.8439 47.9222H40.603C44.143 47.9222 46.7272 48.8422 48.3557 50.6987C49.9709 52.5553 50.4737 55.1617 49.811 58.4948C49.563 59.8148 49.1078 61.0871 48.4623 62.2646C47.798 63.4309 46.954 64.4849 45.9613 65.3877H45.9646ZM63.8479 68.5608L66.259 56.1183C66.5354 54.7084 66.4322 53.7418 65.9426 53.2152C65.4764 52.7119 64.4507 52.4519 62.8921 52.4519H58.0533L54.9329 68.5608H48.8453L54.3068 40.4394H60.3778L58.9225 47.9222H64.3341C67.7543 47.9222 70.0921 48.5122 71.3776 49.6921C72.6797 50.892 73.0593 52.8152 72.5598 55.4751L70.0055 68.5642L63.8479 68.5608ZM97.5631 58.4948C97.3227 59.8168 96.8671 61.0904 96.2144 62.2646C95.5564 63.4296 94.7191 64.4835 93.7334 65.3877C92.5701 66.4914 91.1784 67.3255 89.6572 67.8309C88.1652 68.3008 86.257 68.5608 83.9525 68.5608H78.714L77.2587 76.027H71.1345L76.5994 47.9222H88.3584C91.8984 47.9222 94.4827 48.8422 96.1111 50.7187C97.7263 52.5586 98.2292 55.1617 97.5664 58.4948H97.5631ZM86.0505 52.3486H81.8678L79.5799 64.1178H83.2931C85.7708 64.1178 87.6091 63.6512 88.808 62.7146C90.0202 61.7946 90.8361 60.2314 91.2557 58.0615C91.6686 55.9784 91.4788 54.5018 90.6962 53.6352C89.9369 52.7852 88.375 52.3519 86.0505 52.3519V52.3486Z" fill="black"/>
</svg>
