<svg width="120" height="121" viewBox="0 0 120 121" fill="none" xmlns="http://www.w3.org/2000/svg">
<rect width="120" height="121" rx="17" fill="#0D1117"/>
<path d="M45.5946 20.6523C42.9461 20.4735 40.3415 20.9503 38.0597 22.2679C35.0163 24.0246 32.9883 27.0268 31.9007 30.4869C30.8131 33.9376 30.5624 37.9217 30.9604 42.2728C30.998 42.7119 31.0764 43.1731 31.1297 43.6217C30.716 43.7974 30.2771 43.9605 29.876 44.1487C25.9142 45.9776 22.5949 48.1861 20.147 50.8557C17.7022 53.5284 16.1194 56.7847 16.1194 60.3044C16.1194 63.8211 17.7022 67.0804 20.147 69.7532C22.5918 72.4228 25.9142 74.6313 29.876 76.4602C30.2771 76.6484 30.716 76.8115 31.1297 76.9872C31.0764 77.4358 30.998 77.8969 30.9573 78.3361C30.5624 82.6872 30.8131 86.6681 31.9007 90.1251C32.9883 93.5821 35.0163 96.5811 38.0597 98.341C41.1031 100.098 44.7107 100.358 48.2463 99.5739C51.7818 98.7896 55.3518 97.0109 58.9155 94.4919C59.276 94.2409 59.6364 93.9429 60 93.6731C60.3604 93.9429 60.7209 94.2378 61.0845 94.4919C64.6482 97.0109 68.2182 98.7896 71.7537 99.5739C75.2892 100.358 78.8968 100.101 81.9403 98.341C84.9837 96.5843 87.0116 93.5821 88.0992 90.122C89.1869 86.6712 89.4376 82.6872 89.0395 78.3361C89.0019 77.8969 88.9236 77.4358 88.8703 76.9872C89.284 76.8115 89.7228 76.6484 90.124 76.4602C94.0858 74.6313 97.4051 72.4228 99.853 69.7532C102.298 67.0804 103.881 63.8242 103.881 60.3044C103.881 56.7878 102.298 53.5284 99.853 50.8557C97.4082 48.1861 94.0858 45.9776 90.124 44.1487C89.7228 43.9605 89.284 43.7974 88.8703 43.6217C88.9236 43.1731 89.0019 42.7119 89.0427 42.2728C89.4376 37.9217 89.1869 33.9408 88.0992 30.4838C87.0116 27.0268 84.9837 24.0277 81.9403 22.2679C78.8968 20.5111 75.2892 20.2508 71.7537 21.035C68.2182 21.8193 64.6482 23.598 61.0845 26.117C60.724 26.368 60.3636 26.666 60 26.9358C59.6395 26.666 59.2791 26.3711 58.9155 26.117C55.3518 23.598 51.7818 21.8193 48.2463 21.035C47.3734 20.8392 46.487 20.7103 45.5946 20.6492V20.6523ZM45.1871 26.9013C45.72 26.9389 46.2873 27.0268 46.8922 27.1648C49.2618 27.6887 52.0983 29.0188 55.0916 31.1018C52.4636 33.6054 50.0276 36.3036 47.8043 39.1734C44.2149 39.6633 40.6673 40.4225 37.1915 41.4446C36.8843 37.8119 37.1476 34.6874 37.8748 32.3723C38.6239 30.0007 39.7397 28.5451 41.194 27.7012C42.2848 27.0738 43.5824 26.7789 45.184 26.9013H45.1871ZM74.8159 26.9013C76.4145 26.7789 77.7152 27.0738 78.806 27.7012C80.2603 28.5419 81.3761 30.0007 82.1252 32.3723C82.8524 34.6874 83.1157 37.8119 82.8085 41.4446C79.3327 40.4225 75.7851 39.6633 72.1957 39.1734C69.9724 36.3036 67.5364 33.6054 64.9083 31.1018C67.9016 29.0188 70.7382 27.6887 73.1077 27.1648C73.7127 27.0299 74.28 26.9389 74.8159 26.9013ZM60 35.0795C61.1001 36.0991 62.2003 37.2315 63.3004 38.4173C62.2008 38.3737 61.1005 38.3497 60 38.3452C58.8873 38.3452 57.7934 38.3797 56.6995 38.4173C57.7965 37.2315 58.8998 36.0991 60 35.0795ZM60 44.6193C63.0246 44.6193 65.9552 44.7981 68.773 45.0961C70.5014 47.4648 72.1032 49.9235 73.5716 52.4618C75.0824 55.0813 76.3925 57.7101 77.546 60.3044C76.3606 62.9871 75.0339 65.605 73.5716 68.147C72.1032 70.6854 70.5014 73.1441 68.773 75.5128C65.9521 75.8108 63.0246 75.9896 60 75.9896C56.9754 75.9896 54.0448 75.8108 51.227 75.5128C49.4985 73.1441 47.8967 70.6854 46.4283 68.147C44.9176 65.5276 43.6074 62.8988 42.454 60.3044C43.6043 57.7101 44.9176 55.0813 46.4283 52.4618C47.9391 49.8424 49.5595 47.3893 51.227 45.0961C54.1409 44.7821 57.0693 44.6229 60 44.6193ZM42.711 46.5015C42.1312 47.4269 41.5545 48.3586 40.9997 49.3248C40.4539 50.2815 39.9252 51.2479 39.4137 52.2234C38.9436 50.7298 38.5306 49.2187 38.1757 47.6936C39.608 47.2512 41.1376 46.8591 42.711 46.5015ZM77.2889 46.5015C78.8624 46.8591 80.3919 47.2512 81.8243 47.6936C81.4921 49.1585 81.0627 50.68 80.5863 52.2234C80.0748 51.2479 79.5461 50.2815 79.0003 49.3248C78.4466 48.3736 77.876 47.4324 77.2889 46.5015ZM32.2737 49.9616C33.0761 53.3026 34.1825 56.769 35.618 60.3044C34.2456 63.6632 33.1277 67.1206 32.2737 70.6473C28.9795 69.0944 26.4063 67.3 24.7701 65.5119C23.0933 63.6799 22.388 61.9859 22.388 60.3044C22.388 58.623 23.0933 56.929 24.7701 55.097C26.4063 53.3088 28.9795 51.5145 32.2737 49.9616ZM87.7262 49.9616C91.0204 51.5145 93.5937 53.3088 95.2298 55.097C96.9067 56.929 97.6119 58.623 97.6119 60.3044C97.6119 61.9859 96.9067 63.6799 95.2298 65.5119C93.5937 67.3 91.0204 69.0944 87.7262 70.6473C86.8723 67.1206 85.7543 63.6632 84.3819 60.3044C85.8174 56.769 86.9239 53.3026 87.7262 49.9616ZM60 50.8933C54.844 50.8933 50.597 55.144 50.597 60.3044C50.597 65.4649 54.844 69.7156 60 69.7156C65.156 69.7156 69.403 65.4649 69.403 60.3044C69.403 55.144 65.156 50.8933 60 50.8933ZM60 57.1674C61.7677 57.1674 63.1343 58.5352 63.1343 60.3044C63.1343 62.0737 61.7677 63.4415 60 63.4415C58.2322 63.4415 56.8657 62.0737 56.8657 60.3044C56.8657 58.5352 58.2322 57.1674 60 57.1674ZM39.4137 68.3855C39.9246 69.3517 40.4418 70.3179 40.9965 71.2841C41.5545 72.2503 42.1312 73.182 42.711 74.1074C41.1376 73.7498 39.608 73.3577 38.1757 72.9153C38.5079 71.4503 38.9373 69.9289 39.4137 68.3855ZM80.5863 68.3855C81.0627 69.9289 81.4952 71.4503 81.8243 72.9153C80.3919 73.3577 78.8624 73.7498 77.2889 74.1074C77.8688 73.182 78.4455 72.2503 79.0034 71.2841C79.5582 70.3179 80.0754 69.3517 80.5863 68.3855ZM37.1915 79.1643C40.4825 80.1368 44.0337 80.9148 47.8043 81.4355C50.1457 84.4471 52.5998 87.1387 55.0916 89.5071C52.0983 91.5901 49.2618 92.9202 46.8922 93.4441C44.4694 93.9837 42.6483 93.7453 41.194 92.9077C39.7397 92.0669 38.6239 90.6082 37.8748 88.2366C37.1476 85.9215 36.8843 82.797 37.1915 79.1643ZM82.8085 79.1643C83.1157 82.797 82.8524 85.9215 82.1252 88.2366C81.3761 90.6082 80.2603 92.0638 78.806 92.9077C77.3516 93.7453 75.5306 93.9837 73.1077 93.4441C70.7382 92.9202 67.9016 91.5901 64.9083 89.5071C67.5364 87.0034 69.9724 84.3053 72.1957 81.4355C75.7851 80.9456 79.3327 80.1864 82.8085 79.1643ZM56.6995 82.1915C57.7934 82.2292 58.8873 82.2637 60 82.2637C61.1127 82.2637 62.2065 82.2292 63.3004 82.1915C62.2034 83.3773 61.1001 84.5098 60 85.5294C58.8577 84.4593 57.7568 83.3458 56.6995 82.1915Z" fill="white"/>
</svg>
