<svg width="134" height="135" viewBox="0 0 134 135" fill="none" xmlns="http://www.w3.org/2000/svg">
<rect width="134" height="135" rx="17" fill="white"/>
<path d="M50.914 23.0418C47.9565 22.8423 45.048 23.3743 42.5 24.8443C39.1015 26.8043 36.837 30.1538 35.6225 34.0143C34.408 37.8643 34.128 42.3093 34.5725 47.1638C34.6145 47.6538 34.702 48.1683 34.7615 48.6688C34.2995 48.8648 33.8095 49.0468 33.3615 49.2568C28.9375 51.2973 25.231 53.7613 22.4975 56.7398C19.7675 59.7218 18 63.3548 18 67.2818C18 71.2053 19.7675 74.8418 22.4975 77.8238C25.2275 80.8023 28.9375 83.2663 33.3615 85.3068C33.8095 85.5168 34.2995 85.6988 34.7615 85.8948C34.702 86.3953 34.6145 86.9098 34.569 87.3998C34.128 92.2543 34.408 96.6958 35.6225 100.553C36.837 104.41 39.1015 107.756 42.5 109.719C45.8985 111.679 49.927 111.97 53.875 111.095C57.823 110.22 61.8095 108.235 65.789 105.425C66.1915 105.145 66.594 104.812 67 104.511C67.4025 104.812 67.805 105.141 68.211 105.425C72.1905 108.235 76.177 110.22 80.125 111.095C84.073 111.97 88.1015 111.683 91.5 109.719C94.8985 107.759 97.163 104.41 98.3775 100.549C99.592 96.6993 99.872 92.2543 99.4275 87.3998C99.3855 86.9098 99.298 86.3953 99.2385 85.8948C99.7005 85.6988 100.19 85.5168 100.639 85.3068C105.062 83.2663 108.769 80.8023 111.503 77.8238C114.232 74.8418 116 71.2088 116 67.2818C116 63.3583 114.232 59.7218 111.503 56.7398C108.772 53.7613 105.062 51.2973 100.639 49.2568C100.19 49.0468 99.7005 48.8648 99.2385 48.6688C99.298 48.1683 99.3855 47.6538 99.431 47.1638C99.872 42.3093 99.592 37.8678 98.3775 34.0108C97.163 30.1538 94.8985 26.8078 91.5 24.8443C88.1015 22.8843 84.073 22.5938 80.125 23.4688C76.177 24.3438 72.1905 26.3283 68.211 29.1388C67.8085 29.4188 67.406 29.7513 67 30.0523C66.5975 29.7513 66.195 29.4223 65.789 29.1388C61.8095 26.3283 57.823 24.3438 53.875 23.4688C52.9004 23.2504 51.9105 23.1065 50.914 23.0383V23.0418ZM50.459 30.0138C51.054 30.0558 51.6875 30.1538 52.363 30.3078C55.009 30.8923 58.1765 32.3763 61.519 34.7003C58.5844 37.4937 55.8642 40.504 53.3815 43.7058C49.3733 44.2525 45.4118 45.0995 41.5305 46.2398C41.1875 42.1868 41.4815 38.7008 42.2935 36.1178C43.13 33.4718 44.376 31.8478 46 30.9063C47.218 30.2063 48.667 29.8773 50.4555 30.0138H50.459ZM83.5445 30.0138C85.3295 29.8773 86.782 30.2063 88 30.9063C89.624 31.8443 90.87 33.4718 91.7065 36.1178C92.5185 38.7008 92.8125 42.1868 92.4695 46.2398C88.5882 45.0995 84.6267 44.2525 80.6185 43.7058C78.1358 40.504 75.4156 37.4937 72.481 34.7003C75.8235 32.3763 78.991 30.8923 81.637 30.3078C82.3125 30.1573 82.946 30.0558 83.5445 30.0138ZM67 39.1383C68.2285 40.2758 69.457 41.5393 70.6855 42.8623C69.4576 42.8136 68.2289 42.7868 67 42.7818C65.7575 42.7818 64.536 42.8203 63.3145 42.8623C64.5395 41.5393 65.7715 40.2758 67 39.1383ZM67 49.7818C70.3775 49.7818 73.65 49.9813 76.7965 50.3138C78.7266 52.9566 80.5153 55.6997 82.155 58.5318C83.842 61.4543 85.305 64.3873 86.593 67.2818C85.2693 70.2749 83.7879 73.1956 82.155 76.0318C80.5153 78.8639 78.7266 81.6071 76.7965 84.2498C73.6465 84.5823 70.3775 84.7818 67 84.7818C63.6225 84.7818 60.35 84.5823 57.2035 84.2498C55.2734 81.6071 53.4847 78.8639 51.845 76.0318C50.158 73.1093 48.695 70.1763 47.407 67.2818C48.6915 64.3873 50.158 61.4543 51.845 58.5318C53.532 55.6093 55.3415 52.8723 57.2035 50.3138C60.4573 49.9635 63.7274 49.7859 67 49.7818ZM47.694 51.8818C47.0465 52.9143 46.4025 53.9538 45.783 55.0318C45.1735 56.0992 44.5831 57.1774 44.012 58.2658C43.487 56.5994 43.0258 54.9135 42.6295 53.2118C44.229 52.7183 45.937 52.2808 47.694 51.8818ZM86.306 51.8818C88.063 52.2808 89.771 52.7183 91.3705 53.2118C90.9995 54.8463 90.52 56.5438 89.988 58.2658C89.4169 57.1774 88.8265 56.0992 88.217 55.0318C87.5987 53.9706 86.9616 52.9204 86.306 51.8818ZM36.039 55.7423C36.935 59.4698 38.1705 63.3373 39.7735 67.2818C38.241 71.0292 36.9926 74.8866 36.039 78.8213C32.3605 77.0888 29.487 75.0868 27.66 73.0918C25.7875 71.0478 25 69.1578 25 67.2818C25 65.4058 25.7875 63.5158 27.66 61.4718C29.487 59.4768 32.3605 57.4748 36.039 55.7423ZM97.961 55.7423C101.64 57.4748 104.513 59.4768 106.34 61.4718C108.213 63.5158 109 65.4058 109 67.2818C109 69.1578 108.213 71.0478 106.34 73.0918C104.513 75.0868 101.64 77.0888 97.961 78.8213C97.0074 74.8866 95.759 71.0292 94.2265 67.2818C95.8295 63.3373 97.065 59.4698 97.961 55.7423ZM67 56.7818C61.2425 56.7818 56.5 61.5243 56.5 67.2818C56.5 73.0393 61.2425 77.7818 67 77.7818C72.7575 77.7818 77.5 73.0393 77.5 67.2818C77.5 61.5243 72.7575 56.7818 67 56.7818ZM67 63.7818C68.974 63.7818 70.5 65.3078 70.5 67.2818C70.5 69.2558 68.974 70.7818 67 70.7818C65.026 70.7818 63.5 69.2558 63.5 67.2818C63.5 65.3078 65.026 63.7818 67 63.7818ZM44.012 76.2978C44.5825 77.3758 45.16 78.4538 45.7795 79.5318C46.4025 80.6098 47.0465 81.6493 47.694 82.6818C45.937 82.2828 44.229 81.8453 42.6295 81.3518C43.0005 79.7173 43.48 78.0198 44.012 76.2978ZM89.988 76.2978C90.52 78.0198 91.003 79.7173 91.3705 81.3518C89.771 81.8453 88.063 82.2828 86.306 82.6818C86.9535 81.6493 87.5975 80.6098 88.2205 79.5318C88.84 78.4538 89.4175 77.3758 89.988 76.2978ZM41.5305 88.3238C45.2055 89.4088 49.171 90.2768 53.3815 90.8578C55.996 94.2178 58.7365 97.2208 61.519 99.8633C58.1765 102.187 55.009 103.671 52.363 104.256C49.6575 104.858 47.624 104.592 46 103.657C44.376 102.719 43.13 101.092 42.2935 98.4458C41.4815 95.8628 41.1875 92.3768 41.5305 88.3238ZM92.4695 88.3238C92.8125 92.3768 92.5185 95.8628 91.7065 98.4458C90.87 101.092 89.624 102.716 88 103.657C86.376 104.592 84.3425 104.858 81.637 104.256C78.991 103.671 75.8235 102.187 72.481 99.8633C75.4156 97.07 78.1358 94.0596 80.6185 90.8578C84.6267 90.3112 88.5882 89.4641 92.4695 88.3238ZM63.3145 91.7013C64.536 91.7433 65.7575 91.7818 67 91.7818C68.2425 91.7818 69.464 91.7433 70.6855 91.7013C69.4605 93.0243 68.2285 94.2878 67 95.4253C65.7245 94.2314 64.4951 92.9892 63.3145 91.7013Z" fill="black"/>
</svg>
