<svg width="120" height="121" viewBox="0 0 120 121" fill="none" xmlns="http://www.w3.org/2000/svg">
<rect width="120" height="121" rx="17" fill="#0D1117"/>
<path fill-rule="evenodd" clip-rule="evenodd" d="M40.0812 38.0412C39.2395 38.0276 38.3994 38.1128 37.5812 38.2947V38.4249H37.7192C38.2043 39.3395 39.0625 39.9322 39.6633 40.7201L41.0514 43.3956L41.1932 43.2688C42.0514 42.7139 42.4469 41.8232 42.4432 40.4632C42.0962 40.1309 42.0439 39.7129 41.7454 39.3156C41.3499 38.788 40.5812 38.4865 40.0812 38.0412ZM107.31 103.462C107.963 103.904 108.403 104.589 109.254 104.867V104.736C108.806 104.216 108.694 103.496 108.284 102.952C107.683 102.404 107.075 101.849 106.478 101.294C104.709 99.1423 102.47 97.2513 100.086 95.6823C98.1901 94.4319 93.9326 92.7396 93.1416 90.7116L92.9998 90.5814C94.3468 90.4444 95.9252 89.9956 97.1677 89.6907C99.2573 89.1769 101.123 89.3071 103.28 88.8001C104.254 88.5397 105.224 88.2862 106.198 88.0327V87.5188C105.108 86.4911 104.332 85.1345 103.142 84.2062C100.03 81.7739 96.6379 79.3416 93.1416 77.3205C91.2012 76.1934 88.8057 75.4672 86.7497 74.5114C86.0594 74.1928 84.8467 74.0249 84.3915 73.4939C83.3094 72.2264 82.7235 70.6266 81.8914 69.157C80.1489 66.0738 78.4324 62.7064 76.8914 59.4622C75.8354 57.2526 75.1488 55.0739 73.8316 53.0904C67.5256 43.5669 60.7345 37.8219 50.2194 32.1729C47.9806 30.9739 45.2865 30.4978 42.4432 29.8777L37.8573 29.6242C36.9244 29.2645 35.9543 28.2197 35.0811 27.7092C31.596 25.6881 22.6556 21.2929 20.0809 27.072C18.4503 30.7204 22.5138 34.2798 23.9691 36.1262C24.9877 37.4246 26.2937 38.8771 27.0251 40.3364C27.5027 41.2956 27.5848 42.2548 27.9952 43.2688C29.0064 45.7696 29.8833 48.4828 31.1893 50.7917C31.8535 51.9599 32.5811 53.1897 33.4132 54.2346C33.9281 54.8752 34.8013 55.1595 34.9393 56.1495C34.0811 57.2492 34.0363 58.9586 33.555 60.3563C31.3833 66.6425 32.2005 74.4531 35.361 79.1053C36.3274 80.5304 38.6073 83.593 41.7454 82.4179C44.4917 81.3902 43.8798 78.2112 44.6633 75.4055C44.8387 74.7683 44.7342 74.299 45.0813 73.8742V74.0009L47.5813 78.5914C49.4321 81.3286 52.7157 84.189 55.4993 86.1177C56.9396 87.118 58.074 88.848 59.9434 89.4338V89.3036H59.8053C59.4397 88.7898 58.8725 88.574 58.4173 88.156C57.2617 87.1263 56.1927 86.0178 55.2195 84.8399C52.6896 81.6883 50.4545 78.2351 48.4171 74.6416C47.4432 72.9218 46.5962 71.0309 45.7753 69.2837C45.4581 68.6089 45.4619 67.5914 44.8051 67.242C43.9059 68.5232 42.5812 69.5578 41.8872 71.0685C40.7752 73.4837 40.6297 76.4298 40.2193 79.4855C39.9767 79.5643 40.0849 79.5095 39.9394 79.6123C38.0065 79.1841 37.3274 77.3547 36.6073 75.7857C34.7901 71.8222 34.4505 65.4332 36.0513 60.8667C36.4655 59.6849 38.3386 55.9645 37.5812 54.8717C37.2155 53.7824 36.0252 53.1555 35.3573 52.323C34.4839 51.2055 33.7387 50.0081 33.1334 48.75C31.6483 45.66 30.9505 42.1863 29.3833 39.0586C28.637 37.565 27.3684 36.0543 26.3273 34.7251C25.178 33.252 23.887 32.1695 22.9952 30.3881C22.678 29.7544 22.2452 28.7438 22.7153 28.0929C22.8646 27.6544 23.0773 27.4694 23.5511 27.329C24.3571 26.7569 26.5997 27.5174 27.4393 27.836C29.6669 28.6856 31.5251 29.494 33.4095 30.6451C34.3162 31.1932 35.2341 32.262 36.3274 32.5566H37.5774C39.5364 32.9677 41.7267 32.6834 43.5514 33.1938C46.779 34.0948 49.6709 35.4959 52.3015 37.0203C60.3091 41.6622 66.8539 48.267 71.3316 56.1495C72.0518 57.417 72.3652 58.6298 72.9995 59.9761C74.2794 62.6892 75.8914 65.4812 77.1638 68.1361C78.4324 70.7842 79.675 73.4563 81.4698 75.659C82.4138 76.8169 86.0631 77.4404 87.7236 78.0844C88.8841 78.5332 90.7871 79.0059 91.8878 79.6123C93.9923 80.777 96.0297 82.1644 97.9998 83.4388C98.9849 84.0794 102.019 85.4771 102.168 86.6247C97.2797 86.5082 93.5483 86.9228 90.3617 88.1594C89.455 88.5089 88.0109 88.5191 87.8617 89.5606C88.3579 90.0402 88.4363 90.7596 88.8318 91.3454C89.593 92.4759 90.8803 93.9934 92.0259 94.7882C93.2834 95.6583 94.5744 96.5867 95.9177 97.3404C98.3058 98.6764 100.977 99.4438 103.276 100.783C104.638 101.575 105.985 102.568 107.306 103.462H107.31Z" fill="white"/>
</svg>
