<svg width="120" height="121" viewBox="0 0 120 121" fill="none" xmlns="http://www.w3.org/2000/svg">
<rect width="120" height="121" rx="17" fill="white"/>
<path fill-rule="evenodd" clip-rule="evenodd" d="M40.0813 38.0412C39.2396 38.0276 38.3994 38.1128 37.5812 38.2947V38.4249H37.7193C38.2044 39.3395 39.0626 39.9322 39.6633 40.7201L41.0514 43.3956L41.1932 43.2688C42.0514 42.7139 42.447 41.8232 42.4432 40.4632C42.0962 40.1309 42.044 39.7129 41.7455 39.3155C41.3499 38.788 40.5813 38.4865 40.0813 38.0412ZM107.31 103.462C107.963 103.904 108.403 104.589 109.254 104.867V104.736C108.806 104.216 108.694 103.496 108.284 102.952C107.683 102.404 107.075 101.849 106.478 101.294C104.709 99.1423 102.47 97.2513 100.086 95.6823C98.1902 94.4319 93.9327 92.7396 93.1416 90.7116L92.9998 90.5814C94.3469 90.4444 95.9252 89.9956 97.1678 89.6907C99.2574 89.1769 101.123 89.307 103.28 88.8C104.254 88.5397 105.224 88.2862 106.198 88.0327V87.5188C105.108 86.4911 104.332 85.1345 103.142 84.2062C100.03 81.7739 96.6379 79.3416 93.1416 77.3205C91.2013 76.1934 88.8058 75.4671 86.7498 74.5114C86.0595 74.1928 84.8468 74.0249 84.3915 73.4939C83.3094 72.2264 82.7236 70.6266 81.8915 69.157C80.1489 66.0738 78.4325 62.7063 76.8914 59.4622C75.8354 57.2526 75.1489 55.0738 73.8317 53.0904C67.5256 43.5669 60.7345 37.8219 50.2195 32.1729C47.9806 30.9739 45.2866 30.4977 42.4432 29.8777L37.8574 29.6242C36.9245 29.2645 35.9543 28.2196 35.0812 27.7092C31.5961 25.688 22.6557 21.2928 20.081 27.072C18.4504 30.7204 22.5139 34.2797 23.9691 36.1262C24.9878 37.4245 26.2938 38.8771 27.0251 40.3364C27.5027 41.2956 27.5848 42.2548 27.9953 43.2688C29.0065 45.7696 29.8834 48.4828 31.1894 50.7917C31.8535 51.9599 32.5812 53.1897 33.4133 54.2345C33.9282 54.8752 34.8013 55.1595 34.9394 56.1495C34.0812 57.2492 34.0364 58.9586 33.5551 60.3563C31.3834 66.6425 32.2006 74.4531 35.3611 79.1053C36.3275 80.5304 38.6074 83.5929 41.7455 82.4179C44.4918 81.3902 43.8798 78.2111 44.6634 75.4055C44.8388 74.7683 44.7343 74.299 45.0813 73.8742V74.0009L47.5814 78.5914C49.4321 81.3285 52.7158 84.189 55.4994 86.1177C56.9397 87.118 58.074 88.848 59.9435 89.4338V89.3036H59.8054C59.4397 88.7898 58.8725 88.5739 58.4173 88.156C57.2618 87.1263 56.1928 86.0178 55.2195 84.8399C52.6896 81.6882 50.4545 78.2351 48.4172 74.6415C47.4433 72.9218 46.5963 71.0308 45.7754 69.2837C45.4582 68.6089 45.4619 67.5914 44.8052 67.242C43.9059 68.5232 42.5813 69.5578 41.8873 71.0685C40.7753 73.4837 40.6298 76.4298 40.2193 79.4855C39.9768 79.5643 40.085 79.5095 39.9395 79.6123C38.0066 79.184 37.3275 77.3547 36.6073 75.7857C34.7902 71.8222 34.4506 65.4332 36.0514 60.8667C36.4655 59.6849 38.3387 55.9645 37.5812 54.8717C37.2156 53.7823 36.0252 53.1554 35.3573 52.323C34.484 51.2055 33.7387 50.0081 33.1334 48.75C31.6483 45.66 30.9506 42.1863 29.3834 39.0586C28.6371 37.565 27.3684 36.0543 26.3274 34.7251C25.1781 33.252 23.887 32.1695 22.9952 30.3881C22.6781 29.7544 22.2452 28.7438 22.7154 28.0929C22.8646 27.6544 23.0773 27.4694 23.5512 27.329C24.3572 26.7569 26.5997 27.5174 27.4393 27.836C29.667 28.6855 31.5252 29.494 33.4095 30.6451C34.3163 31.1932 35.2342 32.262 36.3275 32.5566H37.5775C39.5365 32.9677 41.7268 32.6834 43.5515 33.1938C46.7791 34.0947 49.6709 35.4959 52.3016 37.0203C60.3091 41.6622 66.854 48.2669 71.3317 56.1495C72.0518 57.417 72.3653 58.6297 72.9996 59.976C74.2795 62.6892 75.8914 65.4812 77.1638 68.1361C78.4325 70.7842 79.675 73.4562 81.4698 75.659C82.4139 76.8169 86.0632 77.4404 87.7237 78.0844C88.8841 78.5332 90.7871 79.0059 91.8879 79.6123C93.9924 80.777 96.0297 82.1644 97.9999 83.4388C98.985 84.0794 102.019 85.4771 102.168 86.6247C97.2797 86.5082 93.5484 86.9227 90.3617 88.1594C89.455 88.5089 88.011 88.5191 87.8617 89.5605C88.358 90.0402 88.4364 90.7596 88.8319 91.3453C89.5931 92.4758 90.8804 93.9934 92.0259 94.7882C93.2834 95.6583 94.5745 96.5867 95.9178 97.3404C98.3059 98.6764 100.978 99.4437 103.276 100.783C104.638 101.575 105.985 102.568 107.306 103.462H107.31Z" fill="black"/>
</svg>
