<svg width="134" height="135" viewBox="0 0 134 135" fill="none" xmlns="http://www.w3.org/2000/svg">
<rect width="134" height="135" rx="17" fill="white"/>
<path d="M100.544 34.5839C103.912 35.3675 106.973 37.1312 109.34 39.6525C110.643 41.0171 111.775 42.5358 112.711 44.1751C112.754 44.3532 106.641 48.4603 102.934 50.7512C102.799 50.8422 102.265 50.2606 101.659 49.3664C100.982 48.2022 100.021 47.2286 98.8653 46.5367C97.7098 45.8448 96.3977 45.457 95.0517 45.4096C90.7903 45.1168 88.0443 47.3484 88.064 51.0797C88.0272 51.9963 88.2363 52.9062 88.6694 53.7149C89.6072 55.6537 91.3482 56.817 96.8164 59.1871C106.882 63.5197 111.203 66.3765 113.87 70.4361C115.377 73.0011 116.306 75.8647 116.59 78.8263C116.875 81.7879 116.508 84.7758 115.516 87.5807C114.153 90.6569 111.991 93.3121 109.255 95.2707C106.52 97.2293 103.309 98.4199 99.9581 98.719C96.3957 99.1277 92.7963 99.0904 89.2432 98.6082C83.8006 97.7139 78.787 95.1018 74.9355 91.1537C73.4802 89.515 72.2482 87.6909 71.2716 85.729C71.6822 85.4235 72.1147 85.1484 72.5654 84.906C73.1906 84.5499 75.5567 83.1888 77.7883 81.8949L81.8401 79.5208L82.6868 80.7553C84.113 82.7948 85.9283 84.5322 88.0284 85.8675C90.1494 87.0308 92.5518 87.5821 94.9678 87.4598C97.3838 87.3376 99.7182 86.5466 101.711 85.175C102.739 84.1732 103.381 82.8416 103.526 81.4135C103.671 79.9855 103.308 78.5521 102.502 77.3644C101.41 75.8015 99.1786 74.4878 92.8359 71.7379C87.8625 70.0609 83.3325 67.2812 79.5847 63.6068C77.7999 61.5728 76.4818 59.173 75.7229 56.5756C75.1617 53.6166 75.0789 50.5868 75.4776 47.6017C76.2222 44.1666 78.0048 41.0434 80.5839 38.6554C83.163 36.2674 86.4139 34.73 89.896 34.2516C93.4418 33.8278 97.0312 33.9399 100.544 34.5839ZM67.5324 40.4518L67.576 46.2049H49.2562V98.2284H36.3373V46.2168H18.0175V40.5665C17.9688 38.6316 18.0216 36.6954 18.1758 34.7659C18.2431 34.6749 29.3813 34.6314 42.8858 34.6551L67.4612 34.7224L67.5324 40.4518Z" fill="black"/>
</svg>
